<svg width="89" height="88" viewBox="0 0 89 88" fill="none" xmlns="http://www.w3.org/2000/svg">
<path d="M44.125 0C19.6579 0 0 19.8225 0 43.9375C0 68.0525 19.6579 87.875 44.125 87.875C68.5921 87.875 88.2188 68.0525 88.2188 43.9375C88.2188 19.8225 68.5921 0 44.125 0ZM44.125 3.84375C66.0498 3.84375 84.0625 21.6606 84.0625 43.9375C84.0625 66.2144 66.0498 84.0312 44.125 84.0312C22.2002 84.0312 4.25 66.2144 4.25 43.9375C4.25 21.6606 22.2002 3.84375 44.125 3.84375Z" fill="#039E00"/>
<path d="M44.125 3.84375C66.0498 3.84375 84.0625 21.6606 84.0625 43.9375C84.0625 66.2144 66.0498 84.0312 44.125 84.0312C22.2002 84.0312 4.25 66.2144 4.25 43.9375C4.25 21.6606 22.2002 3.84375 44.125 3.84375Z" fill="#039E00"/>
<path d="M43.1771 25.1644C43.4182 25.0601 43.6775 25.0043 43.9401 25.0002C44.208 24.9961 44.474 25.0457 44.7224 25.1463C44.9707 25.2469 45.1963 25.3964 45.3857 25.5858C45.5752 25.7753 45.7247 26.0009 45.8253 26.2492C45.9259 26.4976 45.9755 26.7636 45.9713 27.0315V41.9065H60.8463C61.1114 41.9027 61.3745 41.9517 61.6204 42.0505C61.8664 42.1494 62.0902 42.2961 62.2789 42.4822C62.4677 42.6683 62.6176 42.89 62.7199 43.1345C62.8222 43.379 62.8748 43.6414 62.8748 43.9065C62.8748 44.1715 62.8222 44.434 62.7199 44.6785C62.6176 44.923 62.4677 45.1447 62.2789 45.3308C62.0902 45.5169 61.8664 45.6636 61.6204 45.7625C61.3745 45.8613 61.1114 45.9102 60.8463 45.9065H45.9713V60.7502C45.9751 61.0153 45.9261 61.2784 45.8273 61.5243C45.7285 61.7703 45.5818 61.9941 45.3957 62.1828C45.2096 62.3716 44.9878 62.5215 44.7433 62.6238C44.4988 62.7261 44.2364 62.7787 43.9713 62.7787C43.7063 62.7787 43.4439 62.7261 43.1994 62.6238C42.9549 62.5215 42.7331 62.3716 42.547 62.1828C42.3609 61.9941 42.2142 61.7703 42.1154 61.5243C42.0166 61.2784 41.9676 61.0153 41.9713 60.7502V45.9065H27.0963C26.8337 45.9189 26.5711 45.8794 26.3237 45.7902C26.0763 45.7011 25.8489 45.5642 25.6544 45.3872C25.46 45.2101 25.3023 44.9965 25.1904 44.7586C25.0784 44.5206 25.0145 44.2629 25.0022 44.0003C24.9899 43.7376 25.0294 43.4751 25.1186 43.2277C25.2078 42.9803 25.3448 42.7529 25.5218 42.5584C25.6989 42.364 25.9125 42.2064 26.1505 42.0945C26.3885 41.9826 26.6462 41.9188 26.9088 41.9065C26.9713 41.9036 27.0339 41.9036 27.0963 41.9065H41.9713V27.0315C41.9672 26.7688 42.0149 26.508 42.1116 26.2637C42.2083 26.0195 42.3522 25.7967 42.535 25.6081C42.7178 25.4195 42.936 25.2687 43.1771 25.1644Z" fill="white"/>
</svg>
